<svg width="115" height="22" viewBox="0 0 115 22" fill="none" xmlns="http://www.w3.org/2000/svg">
<path d="M28.3968 16.3962C27.5 16.3962 26.7723 15.6672 26.7723 14.7687C26.7723 13.8704 27.5 13.1414 28.3968 13.1414C29.2938 13.1414 30.0215 13.8704 30.0215 14.7687C30.0215 15.6672 29.2938 16.3962 28.3968 16.3962ZM10.5092 16.3962C9.6123 16.3962 8.88461 15.6672 8.88461 14.7687C8.88461 13.8704 9.6123 13.1414 10.5092 13.1414C11.4061 13.1414 12.1338 13.8704 12.1338 14.7687C12.1338 15.6672 11.4061 16.3962 10.5092 16.3962ZM28.9723 6.63198L32.2215 1.02095C32.4076 0.698871 32.2892 0.292034 31.9676 0.105569C31.6461 -0.0809116 31.24 0.0377516 31.0537 0.359834L27.7707 6.03866C25.2661 4.88594 22.4568 4.24178 19.4616 4.24178C16.4661 4.24178 13.64 4.88595 11.1354 6.0217L7.85229 0.34288C7.66614 0.0207975 7.25999 -0.0978503 6.93845 0.0886144C6.61691 0.275079 6.49845 0.681917 6.6846 1.004L9.91691 6.61502C4.36615 9.64933 0.558461 15.2773 0 21.9393H38.8722C38.3308 15.2942 34.5399 9.66637 28.9723 6.63198Z" fill="white"/>
<path d="M46.777 22L41.5999 3.87611H45.7787L48.7736 16.469H48.9238L52.228 3.87611H55.806L59.1013 16.4956H59.2603L62.2552 3.87611H66.434L61.2569 22H57.5287L54.0832 10.1504H53.9419L50.5052 22H46.777Z" fill="white"/>
<path d="M69.7779 22H65.6786L71.9247 3.87611H76.8544L83.0916 22H78.9924L74.4602 8.0177H74.3189L69.7779 22ZM69.5217 14.8761H79.2044V17.8673H69.5217V14.8761Z" fill="white"/>
<path d="M85.2694 22V3.87611H92.4077C93.78 3.87611 94.9491 4.13864 95.9151 4.66372C96.881 5.18289 97.6172 5.9056 98.1237 6.83186C98.6361 7.75221 98.8923 8.81416 98.8923 10.0177C98.8923 11.2212 98.6332 12.2832 98.1149 13.2035C97.5966 14.1239 96.8456 14.8407 95.862 15.354C94.8844 15.8673 93.7005 16.1239 92.3105 16.1239H87.7607V13.0531H91.6921C92.4283 13.0531 93.035 12.9263 93.512 12.6726C93.995 12.413 94.3543 12.056 94.5899 11.6018C94.8313 11.1416 94.9521 10.6136 94.9521 10.0177C94.9521 9.41593 94.8313 8.89085 94.5899 8.44248C94.3543 7.9882 93.995 7.63717 93.512 7.38938C93.0291 7.13569 92.4166 7.00885 91.6744 7.00885H89.0947V22H85.2694Z" fill="white"/>
<path d="M101.377 22V3.87611H108.515C109.888 3.87611 111.057 4.13864 112.023 4.66372C112.989 5.18289 113.725 5.9056 114.231 6.83186C114.744 7.75221 115 8.81416 115 10.0177C115 11.2212 114.741 12.2832 114.223 13.2035C113.704 14.1239 112.953 14.8407 111.97 15.354C110.992 15.8673 109.808 16.1239 108.418 16.1239H103.868V13.0531H107.8C108.536 13.0531 109.143 12.9263 109.62 12.6726C110.103 12.413 110.462 12.056 110.698 11.6018C110.939 11.1416 111.06 10.6136 111.06 10.0177C111.06 9.41593 110.939 8.89085 110.698 8.44248C110.462 7.9882 110.103 7.63717 109.62 7.38938C109.137 7.13569 108.524 7.00885 107.782 7.00885H105.202V22H101.377Z" fill="white"/>
</svg>
